<svg width="92" height="74" viewBox="0 0 92 74" fill="none" xmlns="http://www.w3.org/2000/svg">
<g clip-path="url(#clip0_153_327)">
<path d="M88.6588 62.254H56.8779V26.0371H69.3805C72.2554 26.0371 74.8837 27.6614 76.1695 30.233L81.3149 40.5239L87.9156 45.5433C90.1567 46.9257 91.5211 49.3705 91.5211 52.0036V59.3918C91.5211 60.9726 90.2397 62.254 88.6588 62.254Z" fill="#C63C22"/>
<path d="M58.7249 62.254H0.777832V17.1106C0.777832 14.0394 3.26736 11.5503 6.33856 11.5503H53.1646C56.2358 11.5503 58.7254 14.0398 58.7254 17.1106V62.254H58.7249Z" fill="#F86E51"/>
<path d="M58.7247 17.111C58.7247 14.0398 56.2352 11.5503 53.164 11.5503H44.0913V62.254H58.7247V17.111Z" fill="#E25D47"/>
<path d="M72.3762 30.732L77.382 40.7432H62.8953V28.8904H69.3968C70.6584 28.8904 71.8121 29.6033 72.3762 30.732Z" fill="#D0D5D9"/>
<path d="M18.2458 72.4785C23.8927 72.4785 28.4704 67.9008 28.4704 62.2539C28.4704 56.607 23.8927 52.0293 18.2458 52.0293C12.5989 52.0293 8.02124 56.607 8.02124 62.2539C8.02124 67.9008 12.5989 72.4785 18.2458 72.4785Z" fill="#32373B"/>
<path d="M18.2456 66.2049C20.4277 66.2049 22.1966 64.436 22.1966 62.2539C22.1966 60.0719 20.4277 58.303 18.2456 58.303C16.0636 58.303 14.2947 60.0719 14.2947 62.2539C14.2947 64.436 16.0636 66.2049 18.2456 66.2049Z" fill="#484F54"/>
<path d="M76.1929 72.4785C81.8397 72.4785 86.4174 67.9008 86.4174 62.2539C86.4174 56.607 81.8397 52.0293 76.1929 52.0293C70.546 52.0293 65.9683 56.607 65.9683 62.2539C65.9683 67.9008 70.546 72.4785 76.1929 72.4785Z" fill="#32373B"/>
<path d="M76.1931 66.2049C78.3752 66.2049 80.1441 64.436 80.1441 62.2539C80.1441 60.0719 78.3752 58.303 76.1931 58.303C74.0111 58.303 72.2422 60.0719 72.2422 62.2539C72.2422 64.436 74.0111 66.2049 76.1931 66.2049Z" fill="#484F54"/>
<path d="M30.1903 35.9143C39.6458 35.9143 47.311 28.2491 47.311 18.7936C47.311 9.33806 39.6458 1.67285 30.1903 1.67285C20.7348 1.67285 13.0696 9.33806 13.0696 18.7936C13.0696 28.2491 20.7348 35.9143 30.1903 35.9143Z" fill="#32373B"/>
<path d="M30.1903 32.5419C37.7833 32.5419 43.9387 26.3866 43.9387 18.7936C43.9387 11.2005 37.7833 5.04517 30.1903 5.04517C22.5973 5.04517 16.4419 11.2005 16.4419 18.7936C16.4419 26.3866 22.5973 32.5419 30.1903 32.5419Z" fill="#ECF0F1"/>
<path d="M35.6369 24.7402C35.2975 24.7402 34.9556 24.6283 34.6711 24.3982L29.2236 19.9881C28.8632 19.6962 28.6538 19.2572 28.6538 18.7936V10.2333C28.6538 9.38468 29.3417 8.69678 30.1903 8.69678C31.0389 8.69678 31.7268 9.38468 31.7268 10.2333V18.0605L36.6044 22.0092C37.2642 22.5435 37.3656 23.511 36.8323 24.1704C36.5285 24.5457 36.0846 24.7402 35.6369 24.7402Z" fill="#32373B"/>
</g>
<defs>
<clipPath id="clip0_153_327">
<rect width="91.6191" height="74" fill="white" transform="translate(0.19043)"/>
</clipPath>
</defs>
</svg>
