<svg width="50" height="73" viewBox="0 0 50 73" fill="none" xmlns="http://www.w3.org/2000/svg">
<path d="M31.0837 48.6028L48.5813 48.6061L13.6128 13.6377L13.69 62.2947L25.4214 50.9058L32.8868 69.3117C33.3686 70.4996 34.5125 71.2202 35.7201 71.2202C36.1026 71.2202 36.4915 71.1478 36.8679 70.9953C38.432 70.3609 39.1858 68.5785 38.5513 67.0144L31.0837 48.6028Z" fill="#50A5DC"/>
<path d="M17.8719 30.9737C17.0883 30.9737 16.4531 30.3386 16.4531 29.555V25.8098C16.4531 25.0263 17.0883 24.3911 17.8719 24.3911C18.6554 24.3911 19.2906 25.0263 19.2906 25.8098V29.555C19.2906 30.3386 18.6554 30.9737 17.8719 30.9737Z" fill="black"/>
<path d="M6.84024 23.8915C6.05667 23.8915 5.42151 23.2563 5.42151 22.4727V18.7276C5.42151 17.944 6.05667 17.3088 6.84024 17.3088C7.6238 17.3088 8.25897 17.944 8.25897 18.7276V22.4727C8.25897 23.2563 7.6238 23.8915 6.84024 23.8915Z" fill="black"/>
<path d="M22.6445 8.51226H18.8993C18.1158 8.51226 17.4806 7.8771 17.4806 7.09353C17.4806 6.30997 18.1158 5.6748 18.8993 5.6748H22.6445C23.428 5.6748 24.0632 6.30997 24.0632 7.09353C24.0632 7.8771 23.428 8.51226 22.6445 8.51226Z" fill="black"/>
<path d="M17.8719 52.7427C17.0883 52.7427 16.4531 52.1076 16.4531 51.324V35.407C16.4531 34.6234 17.0883 33.9883 17.8719 33.9883C18.6554 33.9883 19.2906 34.6234 19.2906 35.407V51.324C19.2906 52.1076 18.6554 52.7427 17.8719 52.7427Z" fill="black"/>
<path d="M13.6377 1.4187H1.41858V13.6378H13.6377V1.4187Z" fill="#F07C3A"/>
<path d="M49.5846 47.603L15.0565 13.075V1.41873C15.0565 0.635165 14.4214 0 13.6378 0H1.41873C0.635165 0 0 0.635165 0 1.41873V13.6378C0 14.4214 0.635165 15.0565 1.41873 15.0565H12.1964L12.2713 62.2971C12.2721 62.8667 12.6136 63.3806 13.1384 63.602C13.6631 63.8235 14.2696 63.7096 14.6782 63.3129L24.8984 53.391L31.5721 69.845C32.2605 71.5422 33.8886 72.6389 35.72 72.6389C36.2973 72.6389 36.8628 72.5282 37.4009 72.31C38.5087 71.8607 39.3751 71.0069 39.8407 69.906C40.3064 68.8051 40.3153 67.5888 39.866 66.4811L33.1903 50.0221L48.581 50.0249C48.5811 50.0249 48.5811 50.0249 48.5811 50.0249C49.1548 50.0249 49.6722 49.6793 49.8919 49.1493C50.1116 48.6191 49.9902 48.0089 49.5846 47.603ZM2.83746 2.83746H12.2191V12.2191H2.83746V2.83746ZM31.0841 47.1844C31.0839 47.1844 31.0839 47.1844 31.0838 47.1844C30.6119 47.1844 30.1708 47.419 29.9072 47.8104C29.6435 48.2019 29.5917 48.6988 29.7692 49.1364L37.2367 67.5475C37.4011 67.9528 37.3978 68.398 37.2274 68.8008C37.057 69.2036 36.74 69.5161 36.3346 69.6806C36.1369 69.7607 35.9302 69.8014 35.7202 69.8014C35.0497 69.8014 34.4537 69.3999 34.2016 68.7785L26.7362 50.3728C26.5589 49.9354 26.1755 49.6149 25.7137 49.5177C25.6166 49.4973 25.5188 49.4874 25.4215 49.4874C25.0563 49.4874 24.7006 49.6285 24.4333 49.8882L15.1035 58.9456L15.0371 17.0687L45.1556 47.1869L31.0841 47.1844Z" fill="black"/>
</svg>
