<svg width="74" height="74" viewBox="0 0 74 74" fill="none" xmlns="http://www.w3.org/2000/svg">
<path d="M60.125 10.8572V28.9063L4.87939 20.8125C5.0576 20.3381 5.34033 19.9098 5.70663 19.5595C6.07292 19.2093 6.51338 18.9459 6.99533 18.7891L48.8516 2.79817H48.9556C49.9472 2.46852 50.9864 2.30445 52.0313 2.31254C53.0686 2.31114 54.096 2.51471 55.0544 2.91156C56.0128 3.30842 56.8833 3.89073 57.616 4.62504C58.4266 5.44551 59.066 6.41906 59.4967 7.48902C59.9275 8.55897 60.1411 9.70393 60.125 10.8572Z" fill="#231F20"/>
<path d="M62.4375 20.8125H28.9062C28.7906 20.8125 28.675 20.8125 28.5594 20.8125H4.87937C4.83008 20.9412 4.78762 21.0724 4.75219 21.2056C4.66889 21.4515 4.62594 21.7092 4.625 21.9688V61.2812C4.625 63.1212 5.35591 64.8858 6.65695 66.1868C7.95798 67.4878 9.72256 68.2188 11.5625 68.2188H62.4375C64.2774 68.2188 66.042 67.4878 67.3431 66.1868C68.6441 64.8858 69.375 63.1212 69.375 61.2812V27.75C69.375 25.9101 68.6441 24.1455 67.3431 22.8444C66.042 21.5434 64.2774 20.8125 62.4375 20.8125Z" fill="#414042"/>
<path d="M69.375 34.6875V55.5H50.875C49.6484 55.5 48.472 55.0127 47.6046 54.1454C46.7373 53.278 46.25 52.1016 46.25 50.875V39.3125C46.25 38.0859 46.7373 36.9095 47.6046 36.0421C48.472 35.1748 49.6484 34.6875 50.875 34.6875H69.375Z" fill="#FFF200"/>
<path d="M55.5 48.5625C57.4157 48.5625 58.9688 47.0095 58.9688 45.0938C58.9688 43.178 57.4157 41.625 55.5 41.625C53.5843 41.625 52.0312 43.178 52.0312 45.0938C52.0312 47.0095 53.5843 48.5625 55.5 48.5625Z" fill="#231F20"/>
</svg>
