<svg width="33" height="32" viewBox="0 0 33 32" fill="none" xmlns="http://www.w3.org/2000/svg">
<g clip-path="url(#clip0_159_438)">
<path d="M16.1178 10.6681C13.1818 10.6681 10.7858 13.0641 10.7858 16.0001C10.7858 18.9361 13.1818 21.3321 16.1178 21.3321C19.0538 21.3321 21.4498 18.9361 21.4498 16.0001C21.4498 13.0641 19.0538 10.6681 16.1178 10.6681ZM32.1098 16.0001C32.1098 13.7921 32.1298 11.6041 32.0058 9.40007C31.8818 6.84007 31.2978 4.56807 29.4258 2.69607C27.5498 0.820069 25.2818 0.240069 22.7218 0.116069C20.5138 -0.00793076 18.3258 0.0120693 16.1218 0.0120693C13.9138 0.0120693 11.7258 -0.00793076 9.52176 0.116069C6.96176 0.240069 4.68976 0.824069 2.81776 2.69607C0.941758 4.57207 0.361758 6.84007 0.237758 9.40007C0.113758 11.6081 0.133758 13.7961 0.133758 16.0001C0.133758 18.2041 0.113758 20.3961 0.237758 22.6001C0.361758 25.1601 0.945758 27.4321 2.81776 29.3041C4.69376 31.1801 6.96176 31.7601 9.52176 31.8841C11.7298 32.0081 13.9178 31.9881 16.1218 31.9881C18.3298 31.9881 20.5178 32.0081 22.7218 31.8841C25.2818 31.7601 27.5538 31.1761 29.4258 29.3041C31.3018 27.4281 31.8818 25.1601 32.0058 22.6001C32.1338 20.3961 32.1098 18.2081 32.1098 16.0001ZM16.1178 24.2041C11.5778 24.2041 7.91376 20.5401 7.91376 16.0001C7.91376 11.4601 11.5778 7.79607 16.1178 7.79607C20.6578 7.79607 24.3218 11.4601 24.3218 16.0001C24.3218 20.5401 20.6578 24.2041 16.1178 24.2041ZM24.6578 9.37607C23.5978 9.37607 22.7418 8.52007 22.7418 7.46007C22.7418 6.40007 23.5978 5.54407 24.6578 5.54407C25.7178 5.54407 26.5738 6.40007 26.5738 7.46007C26.5741 7.71177 26.5247 7.96106 26.4286 8.19366C26.3324 8.42627 26.1913 8.63761 26.0133 8.81559C25.8353 8.99357 25.624 9.13469 25.3914 9.23087C25.1588 9.32704 24.9095 9.37638 24.6578 9.37607Z" fill="white"/>
</g>
<defs>
<clipPath id="clip0_159_438">
<rect width="32" height="32" fill="white" transform="translate(0.117676)"/>
</clipPath>
</defs>
</svg>
